<svg  viewBox="0 0 63 63" fill="none" xmlns="http://www.w3.org/2000/svg">
<path fill-rule="evenodd" clip-rule="evenodd" d="M47.2496 31.5C47.2496 32.0222 47.0422 32.523 46.673 32.8922C46.3038 33.2614 45.803 33.4688 45.2809 33.4688H22.4709L30.9247 41.9187C31.1078 42.1017 31.253 42.319 31.352 42.5582C31.4511 42.7973 31.5021 43.0537 31.5021 43.3125C31.5021 43.5714 31.4511 43.8277 31.352 44.0669C31.253 44.3061 31.1078 44.5234 30.9247 44.7064C30.7417 44.8895 30.5244 45.0347 30.2852 45.1337C30.0461 45.2328 29.7897 45.2838 29.5309 45.2838C29.272 45.2838 29.0157 45.2328 28.7765 45.1337C28.5373 45.0347 28.32 44.8895 28.137 44.7064L16.3245 32.8939C16.1411 32.711 15.9957 32.4938 15.8964 32.2546C15.7972 32.0154 15.7461 31.759 15.7461 31.5C15.7461 31.2411 15.7972 30.9847 15.8964 30.7455C15.9957 30.5063 16.1411 30.2891 16.3245 30.1062L28.137 18.2937C28.5067 17.924 29.0081 17.7163 29.5309 17.7163C30.0537 17.7163 30.5551 17.924 30.9247 18.2937C31.2944 18.6633 31.5021 19.1647 31.5021 19.6875C31.5021 20.2104 31.2944 20.7117 30.9247 21.0814L22.4709 29.5313H45.2809C45.803 29.5313 46.3038 29.7387 46.673 30.1079C47.0422 30.4771 47.2496 30.9779 47.2496 31.5Z" fill="#F0EBCE"/>
</svg>
