<svg width="26" height="33" viewBox="0 0 26 33" fill="none" xmlns="http://www.w3.org/2000/svg">
<path d="M7.3235 0.235212L5.85365 0.678012C4.54488 1.0727 3.3761 1.83304 2.48487 2.86954C1.59363 3.90605 1.01704 5.17558 0.822948 6.52871C0.214098 10.7681 1.5753 15.725 4.85735 21.4097C8.1312 27.08 11.7351 30.7331 15.7018 32.3321C16.9764 32.8457 18.3716 32.9826 19.7217 32.7264C21.0718 32.4702 22.3199 31.8317 23.3176 30.8868L24.4287 29.8331C25.1502 29.1503 25.5992 28.2287 25.6924 27.2397C25.7855 26.2507 25.5164 25.2615 24.935 24.456L22.1552 20.602C21.7794 20.0817 21.2502 19.692 20.6418 19.4876C20.0334 19.2832 19.3762 19.2743 18.7625 19.4622L14.5579 20.7475L14.4493 20.768C13.986 20.8357 12.9159 19.8332 11.5834 17.5249C10.1894 15.11 9.9024 13.6976 10.2857 13.3327L12.4239 11.338C13.2058 10.6092 13.7399 9.65382 13.9513 8.60601C14.1627 7.55821 14.0408 6.47051 13.6026 5.49551L12.2455 2.47996C11.8375 1.57251 11.1133 0.844427 10.2081 0.431422C9.30289 0.0184176 8.27838 -0.0513193 7.32555 0.235212H7.3235ZM10.378 3.32046L11.731 6.33601C11.9945 6.92074 12.0682 7.57332 11.9417 8.20208C11.8152 8.83084 11.4949 9.40417 11.0258 9.84151L8.8815 11.8382C7.51005 13.1379 7.96515 15.356 9.81015 18.5499C11.5444 21.5552 13.127 23.0394 14.8285 22.7811L15.0827 22.7278L19.3631 21.422C19.5677 21.3591 19.7869 21.3619 19.9898 21.4299C20.1928 21.4979 20.3693 21.6278 20.4947 21.8012L23.2745 25.6552C23.5656 26.0579 23.7005 26.5527 23.6541 27.0474C23.6078 27.5422 23.3833 28.0032 23.0224 28.3448L21.9092 29.3985C21.1966 30.073 20.3052 30.5287 19.3411 30.7115C18.377 30.8943 17.3807 30.7965 16.4706 30.4297C12.9897 29.0275 9.69945 25.6921 6.6347 20.3847C3.56175 15.0649 2.3174 10.5406 2.85245 6.81981C2.99095 5.85309 3.40278 4.94607 4.03944 4.20554C4.6761 3.46501 5.51109 2.9218 6.4461 2.63986L7.91595 2.19706C8.39249 2.05387 8.90484 2.08888 9.35747 2.29558C9.81009 2.50228 10.1721 2.86655 10.3759 3.32046H10.378Z" fill="#43855C"/>
</svg>
