<svg id="Layer_1" enable-background="new 0 0 450 450" height="512" viewBox="0 0 450 450" width="512" xmlns="http://www.w3.org/2000/svg"><g><g><path d="m379.5 197.3c-2 0-4.1-.8-5.7-2.3-3.1-3.1-3.1-8.2 0-11.3l16.7-16.7c8-8 8-21 0-29l-34.4-34.4c-8-8-21-8-29 0l-16.7 16.7c-3.1 3.1-8.2 3.1-11.3 0s-3.1-8.2 0-11.3l16.7-16.7c14.2-14.2 37.4-14.2 51.6 0l34.4 34.4c14.2 14.2 14.2 37.4 0 51.6l-16.6 16.7c-1.6 1.5-3.6 2.3-5.7 2.3z"/><path d="m308.1 368.5c-7.8 0-15.1-3-20.7-8.6l-126.9-126.8c-1.5-1.5-2.3-3.5-2.3-5.7s.8-4.2 2.3-5.7l125.8-125.7c3.1-3.1 8.2-3.1 11.3 0l126.9 126.9c5.5 5.5 8.6 12.9 8.6 20.7s-3 15.1-8.6 20.7l-95.8 95.7c-5.5 5.5-12.8 8.5-20.6 8.5zm-130.6-141.1 121.2 121.2c5.1 5.2 13.5 5.2 18.7 0l95.7-95.7c5.2-5.2 5.2-13.5 0-18.7l-121.2-121.2z"/><path d="m192.3 261.5c-2 0-4.1-.8-5.7-2.3-3.1-3.1-3.1-8.2 0-11.3l125.7-125.7c3.1-3.1 8.2-3.1 11.3 0s3.1 8.2 0 11.3l-125.6 125.7c-1.6 1.6-3.6 2.3-5.7 2.3z"/><path d="m282 351.2c-2 0-4.1-.8-5.7-2.3-3.1-3.1-3.1-8.2 0-11.3l125.7-125.8c3.1-3.1 8.2-3.1 11.3 0s3.1 8.2 0 11.3l-125.7 125.7c-1.5 1.6-3.6 2.4-5.6 2.4z"/><g><path d="m253.5 322.8h-84.1c-4.4 0-8-3.6-8-8v-31.2c0-4.4 3.6-8 8-8h52.9c4.4 0 8 3.6 8 8s-3.6 8-8 8h-44.9v15.2h76.1c4.4 0 8 3.6 8 8s-3.5 8-8 8z"/><path d="m130 342.7c-1.5 0-2.9-.4-4.2-1.2-2.4-1.5-3.8-4-3.8-6.8v-71.1c0-2.8 1.4-5.4 3.8-6.8 2.4-1.5 5.3-1.6 7.8-.3l39.5 20c2.7 1.4 4.4 4.1 4.4 7.1v31.2c0 3-1.7 5.8-4.4 7.1l-39.5 20c-1.1.5-2.4.8-3.6.8zm8-66.1v45.1l23.5-11.9v-21.4z"/></g></g><g><path d="m36.3 360.3c-1.2 0-2.4-.3-3.5-.8-4-2-5.6-6.8-3.6-10.7s4.3-7.8 7.1-11.4c2.6-3.5 7.7-4.3 11.2-1.6 3.5 2.6 4.3 7.7 1.6 11.2-2.1 2.9-4 5.9-5.5 9-1.5 2.6-4.4 4.3-7.3 4.3zm24.3-27.4c-2.6 0-5.1-1.2-6.6-3.5-2.5-3.6-1.6-8.6 2.1-11.1 3.6-2.5 7.5-4.7 11.4-6.6 4-1.9 8.8-.2 10.7 3.7 1.9 4 .2 8.8-3.7 10.7-3.2 1.6-6.4 3.4-9.3 5.4-1.4 1-3 1.4-4.6 1.4zm34.3-12.9c-4 0-7.5-3.1-7.9-7.2-.5-4.4 2.7-8.3 7.1-8.8 4.6-.5 9.1-.5 13.5-.1s7.6 4.3 7.2 8.7-4.3 7.6-8.7 7.2c-3.4-.3-6.9-.3-10.4.1-.2.1-.5.1-.8.1z"/><path d="m27.8 327.2c-1.3 0-2.6-.3-3.8-1-3.9-2.1-5.4-6.9-3.3-10.8s4.6-7.6 7.4-11.2c2.8-3.4 7.8-4 11.2-1.2s4 7.8 1.2 11.2c-2.2 2.8-4.2 5.7-5.8 8.8-1.3 2.6-4 4.2-6.9 4.2zm25.3-26.6c-2.6 0-5.2-1.3-6.8-3.7-2.4-3.7-1.3-8.7 2.5-11 3.7-2.4 7.6-4.5 11.6-6.2 4-1.8 8.8.1 10.5 4.1 1.8 4-.1 8.8-4.1 10.5-3.3 1.4-6.5 3.2-9.5 5.1-1.3.8-2.8 1.2-4.2 1.2zm46.6-11.4c-.3 0-.7 0-1-.1-3.4-.4-6.9-.5-10.4-.3-4.4.3-8.2-3-8.5-7.4s3-8.2 7.4-8.5c4.6-.3 9.1-.2 13.5.3s7.5 4.5 6.9 8.9c-.4 4.1-3.9 7.1-7.9 7.1z"/></g></g></svg>